<svg xmlns="http://www.w3.org/2000/svg" viewBox="0 0 296.79 73.71"><defs><style>.cls-1{fill:#102a83;}.cls-2{fill:#1b1918;}.cls-3{fill:#b1c900;}</style></defs><g id="Layer_2" data-name="Layer 2"><g id="svg2"><g id="Layer1000"><g id="Layer1001"><path id="path6" class="cls-1" d="M250.82,12.67H259a2.31,2.31,0,0,1,1.42.38,1.36,1.36,0,0,1,.48,1.14,2.83,2.83,0,0,1-.05.4c0,.18-.08.38-.13.6L260.37,17a12.36,12.36,0,0,1,3.06-3.43,5.91,5.91,0,0,1,3.39-.9H271l-.59,2.79a5.27,5.27,0,0,1-1.22,2.71,4.26,4.26,0,0,1-2.58.57h-3a4.46,4.46,0,0,0-2.93,1A5.33,5.33,0,0,0,259,22.57l-4.12,17.17c0,.08,0,.19-.08.35a4.37,4.37,0,0,0-.13.82,1.38,1.38,0,0,0,.47,1.1,2,2,0,0,0,1.32.39l-.17,1.05h-7.79a1.89,1.89,0,0,1-1.39-.49,1.76,1.76,0,0,1-.5-1.35,3.39,3.39,0,0,1,0-.52c0-.19.08-.4.13-.62l5.72-24.06a4.34,4.34,0,0,0,.1-.53,3,3,0,0,0,0-.31,1.52,1.52,0,0,0-.5-1.18,3.25,3.25,0,0,0-1.54-.67l.22-1.05Zm-13-5.37h3.44L240,12.67h7.89l-.73,3.47a2.46,2.46,0,0,1-.8,1.54,3.59,3.59,0,0,1-2,.39h-2.65a4.51,4.51,0,0,0-2.51.52,3.42,3.42,0,0,0-1.11,2l-3.33,13.61c-.11.46-.18.81-.22,1.07s-.06.48-.07.67a1.9,1.9,0,0,0,.5,1.44,2.15,2.15,0,0,0,1.5.49h2.55a5.83,5.83,0,0,0,3-.62,4.3,4.3,0,0,0,1.69-2.09h1.11L243,41.5A2.34,2.34,0,0,1,241.76,43a7.25,7.25,0,0,1-3,.44h-9.12a4,4,0,0,1-2.88-1,3.71,3.71,0,0,1-1.05-2.75,6.42,6.42,0,0,1,.06-.79q.08-.47.21-1.11l4.72-19.71h-2.93l1-4.1a11.79,11.79,0,0,0,5.42-2.09,11.56,11.56,0,0,0,3.62-4.58Zm-68,5.37H177a2.07,2.07,0,0,1,1.69.65,3.84,3.84,0,0,1,.7,2.14l1.38,18.39,7.79-17.63.18-.57a1.58,1.58,0,0,0,.08-.46,1.3,1.3,0,0,0-.4-1,2.29,2.29,0,0,0-1.2-.48l.27-1.05h8.06a2.06,2.06,0,0,1,1.25.34,1.06,1.06,0,0,1,.46.88,1.58,1.58,0,0,1-.06.45,2.28,2.28,0,0,1-.15.44L182,43.45h-7.79L171.73,17a5,5,0,0,0-.63-2.3,2.39,2.39,0,0,0-1.54-1l.33-1.05Zm-22.72,0h8.21a2.28,2.28,0,0,1,1.41.38,1.34,1.34,0,0,1,.49,1.14,2,2,0,0,1-.06.4,6,6,0,0,1-.13.6L156.71,17a12.36,12.36,0,0,1,3.07-3.43,5.85,5.85,0,0,1,3.38-.9h4.21l-.59,2.79a5.26,5.26,0,0,1-1.23,2.71,4.26,4.26,0,0,1-2.58.57h-3a4.43,4.43,0,0,0-2.92,1,5.21,5.21,0,0,0-1.63,2.86l-4.12,17.17-.09.35a4.37,4.37,0,0,0-.13.82,1.35,1.35,0,0,0,.48,1.1,2,2,0,0,0,1.31.39l-.17,1.05h-7.78a1.91,1.91,0,0,1-1.4-.49,1.8,1.8,0,0,1-.5-1.35,3.56,3.56,0,0,1,0-.52,4.05,4.05,0,0,1,.13-.62l5.72-24.06c0-.25.08-.43.09-.53a3,3,0,0,0,0-.31,1.54,1.54,0,0,0-.49-1.18,3.3,3.3,0,0,0-1.55-.67Zm-25.59,0,13.77,0A7.67,7.67,0,0,1,140.26,14a4.72,4.72,0,0,1,1.65,3.91,7.63,7.63,0,0,1-.08,1.14,15.42,15.42,0,0,1-.35,1.67l-4.29,18.07c0,.16-.07.37-.13.63a7,7,0,0,0-.25,1.43,1.31,1.31,0,0,0,.43,1,2.45,2.45,0,0,0,1.29.52l-.27,1.05h-7a3.59,3.59,0,0,1-2-.44,1.69,1.69,0,0,1-.62-1.45,7.32,7.32,0,0,1,.09-.9c.07-.36.18-.86.35-1.52-.22.3-.52.69-.9,1.22A9.47,9.47,0,0,1,125.7,43a4.76,4.76,0,0,1-1.66.38c-.77.07-1.9.11-3.38.11q-3.78,0-5.65-1.79a6.38,6.38,0,0,1-1.87-5.06q0-6.07,2.86-9.85A9,9,0,0,1,123.48,23h7a3.36,3.36,0,0,0,2.36-.67,3,3,0,0,0,.7-2.2,1.76,1.76,0,0,0-.52-1.41,2.67,2.67,0,0,0-1.7-.43h-7.62a3.3,3.3,0,0,1-2.07-.5,2.25,2.25,0,0,1-.59-1.78,11.35,11.35,0,0,1,.12-1.62,13.92,13.92,0,0,1,.37-1.69Zm5.23,15.21a5.33,5.33,0,0,0-4.25,1.78A7.19,7.19,0,0,0,121,34.56a2.82,2.82,0,0,0,1,2.5,7.78,7.78,0,0,0,3.93.67c.69,0,1.31,0,1.86,0s1.06-.1,1.53-.16l2.39-9.61ZM100.69,5h11.39l-.84,4a2.9,2.9,0,0,1-.9,1.69,2.6,2.6,0,0,1-1.76.56h-6.41a4.29,4.29,0,0,0-3.32,1.35,5.1,5.1,0,0,0-1.25,3.58,2.13,2.13,0,0,0,.58,1.49,6.64,6.64,0,0,0,2,1.36L106,21.72a8,8,0,0,1,3.45,2.89,8.41,8.41,0,0,1,1.11,4.47c0,4.57-1.13,8.12-3.39,10.62s-5.47,3.75-9.63,3.75H89.41A11.74,11.74,0,0,1,85.24,43a1.73,1.73,0,0,1-1-1.7,6,6,0,0,1,.09-.81c0-.09,0-.15,0-.19l1.17-5h1A2.43,2.43,0,0,0,87.17,37a3.45,3.45,0,0,0,2.13.5h6.51a6.77,6.77,0,0,0,5-1.91,6.69,6.69,0,0,0,1.9-4.92,3,3,0,0,0-.59-1.91,4.93,4.93,0,0,0-1.95-1.37l-6.67-2.94a6,6,0,0,1-2.84-2.38,7.72,7.72,0,0,1-.88-4q0-6.14,2.91-9.65a9.87,9.87,0,0,1,8-3.5ZM203.51,12.7l13.76,0A7.67,7.67,0,0,1,222.18,14a4.72,4.72,0,0,1,1.66,3.91,9.25,9.25,0,0,1-.08,1.14,16,16,0,0,1-.36,1.67l-4.28,18.07c0,.16-.08.37-.13.63a6.33,6.33,0,0,0-.25,1.43,1.34,1.34,0,0,0,.42,1,2.49,2.49,0,0,0,1.29.52l-.27,1.05h-7a3.61,3.61,0,0,1-2-.44,1.71,1.71,0,0,1-.62-1.45,6,6,0,0,1,.1-.9c.06-.36.17-.86.34-1.52-.21.3-.52.69-.9,1.22A9.67,9.67,0,0,1,207.63,43a4.82,4.82,0,0,1-1.66.38c-.78.07-1.91.11-3.39.11q-3.78,0-5.65-1.79a6.38,6.38,0,0,1-1.87-5.06,15.93,15.93,0,0,1,2.86-9.85A9,9,0,0,1,205.4,23h7a3.36,3.36,0,0,0,2.36-.67,3,3,0,0,0,.71-2.2,1.76,1.76,0,0,0-.52-1.41,2.73,2.73,0,0,0-1.71-.43h-7.62a3.27,3.27,0,0,1-2.06-.5A2.22,2.22,0,0,1,203,16a10.06,10.06,0,0,1,.12-1.62,12.25,12.25,0,0,1,.37-1.69Zm5.23,15.21a5.31,5.31,0,0,0-4.25,1.78A7.2,7.2,0,0,0,203,34.56a2.82,2.82,0,0,0,1,2.5,7.8,7.8,0,0,0,3.93.67c.69,0,1.31,0,1.87,0s1.05-.1,1.52-.16l2.39-9.61ZM276.46,12.7l13.77,0a7.66,7.66,0,0,1,4.9,1.33,4.69,4.69,0,0,1,1.66,3.91,9.25,9.25,0,0,1-.08,1.14c-.06.4-.17.95-.35,1.67l-4.29,18.07c0,.16-.07.37-.13.63a6.33,6.33,0,0,0-.25,1.43,1.31,1.31,0,0,0,.43,1,2.42,2.42,0,0,0,1.28.52l-.27,1.05h-7a3.55,3.55,0,0,1-2-.44,1.69,1.69,0,0,1-.62-1.45,5.77,5.77,0,0,1,.09-.9c.06-.36.18-.86.34-1.52-.21.3-.52.69-.9,1.22A9.51,9.51,0,0,1,280.58,43a4.76,4.76,0,0,1-1.66.38c-.78.07-1.91.11-3.39.11q-3.78,0-5.65-1.79A6.42,6.42,0,0,1,268,36.62a15.87,15.87,0,0,1,2.87-9.85A8.94,8.94,0,0,1,278.36,23h7a3.35,3.35,0,0,0,2.36-.67,2.93,2.93,0,0,0,.71-2.2,1.76,1.76,0,0,0-.52-1.41,2.69,2.69,0,0,0-1.7-.43h-7.62a3.28,3.28,0,0,1-2.07-.5A2.22,2.22,0,0,1,276,16a11.35,11.35,0,0,1,.12-1.62,12.25,12.25,0,0,1,.37-1.69Zm5.23,15.21a5.31,5.31,0,0,0-4.25,1.78,7.2,7.2,0,0,0-1.53,4.87,2.84,2.84,0,0,0,1,2.5,7.82,7.82,0,0,0,3.94.67c.68,0,1.3,0,1.86,0s1.05-.1,1.53-.16l2.39-9.61Z"/><path id="path8" class="cls-2" d="M100.43,55.71a1.1,1.1,0,0,1,0,.16.66.66,0,0,1,0,.23l-.11.26a1,1,0,0,1-.17.24.7.7,0,0,1-.24.17.82.82,0,0,1-.31.07H93.49L89.75,68.29a.29.29,0,0,1-.13.14.83.83,0,0,1-.26.1,4,4,0,0,1-.46,0,6.81,6.81,0,0,1-.7,0,6.39,6.39,0,0,1-.68,0,3,3,0,0,1-.42,0,.53.53,0,0,1-.2-.1.12.12,0,0,1,0-.14l3.72-11.45h-6a.41.41,0,0,1-.32-.1.37.37,0,0,1-.08-.25.67.67,0,0,1,0-.18c0-.07,0-.15.06-.24a1.89,1.89,0,0,1,.11-.25,1,1,0,0,1,.17-.23.92.92,0,0,1,.22-.18.65.65,0,0,1,.29-.06h15a.31.31,0,0,1,.38.36Zm15.12,0a1,1,0,0,1,0,.16.68.68,0,0,1-.05.23c0,.08-.06.17-.1.26a.78.78,0,0,1-.16.24.7.7,0,0,1-.24.17.67.67,0,0,1-.31.07h-8.4L104.91,61h7.24a.43.43,0,0,1,.3.08.28.28,0,0,1,.1.24,1.37,1.37,0,0,1,0,.16q0,.1-.06.24a1.3,1.3,0,0,1-.1.25,1.12,1.12,0,0,1-.16.22.73.73,0,0,1-.52.23h-7.22l-1.57,4.72h8.57a.51.51,0,0,1,.28.08.32.32,0,0,1,.11.26,1.49,1.49,0,0,1,0,.17c0,.08,0,.15-.06.24l-.1.25a.87.87,0,0,1-.16.23.81.81,0,0,1-.24.17.78.78,0,0,1-.31.06H100.62a1.47,1.47,0,0,1-.36,0,.79.79,0,0,1-.3-.12.46.46,0,0,1-.17-.22.49.49,0,0,1,0-.33l3.84-11.78a.85.85,0,0,1,.52-.56,2.25,2.25,0,0,1,.79-.15h10.2c.25,0,.38.11.38.33Zm18.08,1a1.52,1.52,0,0,1-.12.52,1.34,1.34,0,0,1-.31.51.59.59,0,0,1-.41.18,1.2,1.2,0,0,1-.55-.19,6.64,6.64,0,0,0-.84-.41,8.74,8.74,0,0,0-3.48-.59,9.27,9.27,0,0,0-2.55.32,8.57,8.57,0,0,0-2.07.86,8,8,0,0,0-1.62,1.26,7.56,7.56,0,0,0-1.16,1.5,6.84,6.84,0,0,0-.69,1.58,5.12,5.12,0,0,0-.23,1.5,3,3,0,0,0,.33,1.46,3.08,3.08,0,0,0,1,1.08,4.77,4.77,0,0,0,1.55.66,8.73,8.73,0,0,0,2.08.22,12,12,0,0,0,2.24-.18,14.72,14.72,0,0,0,1.61-.39c.45-.15.83-.28,1.13-.4a2.07,2.07,0,0,1,.73-.18.41.41,0,0,1,.27.08.36.36,0,0,1,.08.24,1,1,0,0,1,0,.15l-.06.21c0,.08-.05.16-.08.25a.91.91,0,0,1-.11.25,1.53,1.53,0,0,1-.14.21.78.78,0,0,1-.25.2,4.5,4.5,0,0,1-.73.3,12.54,12.54,0,0,1-1.36.38c-.54.12-1.15.22-1.82.3a16.08,16.08,0,0,1-2.14.13,13.66,13.66,0,0,1-3.06-.31,7.31,7.31,0,0,1-2.32-.92A4.36,4.36,0,0,1,117,66a4,4,0,0,1-.53-2.07,6.27,6.27,0,0,1,.34-2,7.66,7.66,0,0,1,1-2,9.18,9.18,0,0,1,1.62-1.83,10.57,10.57,0,0,1,2.26-1.5,12.31,12.31,0,0,1,2.91-1,15.65,15.65,0,0,1,3.55-.38,14.85,14.85,0,0,1,2.27.17,10.85,10.85,0,0,1,1.8.43,6.26,6.26,0,0,1,1.08.45.57.57,0,0,1,.34.46Zm15.85,11.6a.53.53,0,0,1-.13.13.9.9,0,0,1-.27.1,3.82,3.82,0,0,1-.45,0,6.75,6.75,0,0,1-.71,0,6.12,6.12,0,0,1-.66,0,3.42,3.42,0,0,1-.43,0,.41.41,0,0,1-.2-.1.11.11,0,0,1,0-.13l1.9-5.87h-9.81l-1.9,5.87a.42.42,0,0,1-.11.13.9.9,0,0,1-.27.1,4,4,0,0,1-.46,0,8.07,8.07,0,0,1-1.39,0,3,3,0,0,1-.41,0,.41.41,0,0,1-.2-.1.11.11,0,0,1,0-.13l4.13-12.7a.24.24,0,0,1,.12-.13.88.88,0,0,1,.28-.1l.46-.06a6.47,6.47,0,0,1,.69,0,6.32,6.32,0,0,1,.67,0l.42.06a.36.36,0,0,1,.2.1.15.15,0,0,1,0,.13l-1.71,5.3H149l1.73-5.3a.26.26,0,0,1,.11-.13.88.88,0,0,1,.28-.1l.45-.06a6.88,6.88,0,0,1,.71,0,6.19,6.19,0,0,1,.67,0l.43.06c.1,0,.17.06.19.1a.12.12,0,0,1,0,.13l-4.12,12.7Zm22.28-.47a.73.73,0,0,1-.2.34,1.61,1.61,0,0,1-.34.24,2,2,0,0,1-.41.13,2.09,2.09,0,0,1-.43,0h-1.09a3.84,3.84,0,0,1-.73-.06,1.42,1.42,0,0,1-.52-.21,1.48,1.48,0,0,1-.4-.39,4.92,4.92,0,0,1-.37-.6l-4.05-7-.82-1.51c-.28-.5-.54-1-.79-1.5h0c-.14.55-.3,1.11-.46,1.66s-.34,1.1-.52,1.65l-2.49,7.69a.37.37,0,0,1-.13.15.9.9,0,0,1-.27.1,3.62,3.62,0,0,1-.44,0,6.38,6.38,0,0,1-.66,0,5.6,5.6,0,0,1-.64,0,2.5,2.5,0,0,1-.4,0,.38.38,0,0,1-.17-.1.16.16,0,0,1,0-.15l4-12.18a.94.94,0,0,1,.56-.58,2.35,2.35,0,0,1,.86-.17h1.31a3.65,3.65,0,0,1,.7,0,1.31,1.31,0,0,1,.9.53,5.12,5.12,0,0,1,.37.53l4.07,7.13c.26.44.51.88.76,1.33l.74,1.33h0c.15-.55.32-1.13.5-1.73s.36-1.18.54-1.73L173,55.63a.31.31,0,0,1,.12-.14.7.7,0,0,1,.25-.09,2,2,0,0,1,.42-.06,6.24,6.24,0,0,1,.66,0,6,6,0,0,1,.64,0,1.79,1.79,0,0,1,.4.06.48.48,0,0,1,.19.09.17.17,0,0,1,0,.14l-4,12.2Zm26-8.06a7.88,7.88,0,0,1-.23,1.76,8,8,0,0,1-.79,2,9.33,9.33,0,0,1-1.45,1.94A9.09,9.09,0,0,1,193,67.11a12.94,12.94,0,0,1-3.16,1.19,18.24,18.24,0,0,1-4.2.44,16.34,16.34,0,0,1-3.32-.29,7.42,7.42,0,0,1-2.4-.87,3.89,3.89,0,0,1-1.43-1.42,3.78,3.78,0,0,1-.49-2,8.18,8.18,0,0,1,.25-1.88,8.06,8.06,0,0,1,.83-2,9.08,9.08,0,0,1,1.5-1.93,9.42,9.42,0,0,1,2.26-1.65A12.75,12.75,0,0,1,186,55.58a17.7,17.7,0,0,1,4.13-.43,15.3,15.3,0,0,1,3.3.31,7.21,7.21,0,0,1,2.38.88,3.78,3.78,0,0,1,1.93,3.43Zm-3.06.13a3.1,3.1,0,0,0-.27-1.31,2.6,2.6,0,0,0-.85-1,4.46,4.46,0,0,0-1.55-.67,9.76,9.76,0,0,0-2.33-.24,10.54,10.54,0,0,0-3,.4,8.62,8.62,0,0,0-2.27,1,6.47,6.47,0,0,0-1.58,1.44,8,8,0,0,0-1,1.61,7,7,0,0,0-.54,1.58,6.44,6.44,0,0,0-.16,1.33,3.26,3.26,0,0,0,.26,1.31,2.42,2.42,0,0,0,.86,1,4.73,4.73,0,0,0,1.55.64,9.84,9.84,0,0,0,2.34.23,10.49,10.49,0,0,0,3-.38,8.32,8.32,0,0,0,2.25-1A6.81,6.81,0,0,0,193,64.42a8.26,8.26,0,0,0,1-1.6,6.88,6.88,0,0,0,.54-1.58,7.11,7.11,0,0,0,.16-1.34Zm16.74,7.48s0,.08,0,.16,0,.16-.07.24-.06.18-.1.27a1,1,0,0,1-.16.25.84.84,0,0,1-.23.18.6.6,0,0,1-.3.07H201a1.5,1.5,0,0,1-.37,0,.84.84,0,0,1-.31-.12.42.42,0,0,1-.18-.22.49.49,0,0,1,0-.33l4-12.24a.26.26,0,0,1,.11-.13,1.07,1.07,0,0,1,.29-.1l.46-.06a6.73,6.73,0,0,1,.69,0,6.32,6.32,0,0,1,.67,0l.42.06a.51.51,0,0,1,.21.1.12.12,0,0,1,0,.13L203.3,67H211a.43.43,0,0,1,.31.09.36.36,0,0,1,.09.26Zm22.21-7.61a7.39,7.39,0,0,1-.24,1.76,8.4,8.4,0,0,1-.78,2,9.25,9.25,0,0,1-3.69,3.61,13.18,13.18,0,0,1-3.17,1.19,18.21,18.21,0,0,1-4.19.44,16.44,16.44,0,0,1-3.33-.29,7.36,7.36,0,0,1-2.39-.87,3.92,3.92,0,0,1-1.44-1.42,3.87,3.87,0,0,1-.48-2,8.18,8.18,0,0,1,.25-1.88,7.67,7.67,0,0,1,.82-2,9.08,9.08,0,0,1,1.5-1.93,9.62,9.62,0,0,1,2.26-1.65,12.84,12.84,0,0,1,3.14-1.14,17.64,17.64,0,0,1,4.13-.43,15.43,15.43,0,0,1,3.3.31,7.3,7.3,0,0,1,2.38.88,4,4,0,0,1,1.44,1.45,4,4,0,0,1,.49,2Zm-3.07.13a3.26,3.26,0,0,0-.26-1.31,2.55,2.55,0,0,0-.86-1,4.41,4.41,0,0,0-1.54-.67,9.76,9.76,0,0,0-2.33-.24,10.67,10.67,0,0,0-3,.4,8.55,8.55,0,0,0-2.26,1,6.47,6.47,0,0,0-1.58,1.44,8,8,0,0,0-1,1.61,7,7,0,0,0-.53,1.58A6.44,6.44,0,0,0,217,64a3.26,3.26,0,0,0,.25,1.31,2.5,2.5,0,0,0,.86,1,4.79,4.79,0,0,0,1.56.64,9.84,9.84,0,0,0,2.34.23,10.49,10.49,0,0,0,3-.38,8.61,8.61,0,0,0,2.25-1,6.81,6.81,0,0,0,1.58-1.42,8.26,8.26,0,0,0,1-1.6,6.83,6.83,0,0,0,.53-1.58,6.37,6.37,0,0,0,.16-1.34Zm25.24-3.11a.67.67,0,0,1,0,.17,1,1,0,0,1-.07.23,1.22,1.22,0,0,1-.1.24,2.3,2.3,0,0,1-.15.23.9.9,0,0,1-.19.15.39.39,0,0,1-.21.06,1.72,1.72,0,0,1-.68-.19c-.28-.12-.66-.26-1.13-.41a15.54,15.54,0,0,0-1.72-.42,14.1,14.1,0,0,0-2.43-.19,12.81,12.81,0,0,0-2.77.28,11.14,11.14,0,0,0-2.37.74A9.12,9.12,0,0,0,242,58.8a7.65,7.65,0,0,0-1.43,1.41,5.63,5.63,0,0,0-.9,1.59,4.81,4.81,0,0,0-.31,1.7,2.94,2.94,0,0,0,.42,1.58A3.53,3.53,0,0,0,241,66.24,6.26,6.26,0,0,0,243,67a12.22,12.22,0,0,0,2.53.24,18,18,0,0,0,2.15-.14,12.82,12.82,0,0,0,2.09-.46L251,62.76h-5a.49.49,0,0,1-.31-.08.34.34,0,0,1-.1-.25,1.76,1.76,0,0,1,0-.19,2.17,2.17,0,0,1,.07-.24.68.68,0,0,1,.12-.24.76.76,0,0,1,.17-.22.69.69,0,0,1,.22-.16.66.66,0,0,1,.28-.05h6.84a.94.94,0,0,1,.67.19.44.44,0,0,1,.09.52l-1.66,5.08a.76.76,0,0,1-.17.31,1.64,1.64,0,0,1-.25.21,4,4,0,0,1-.75.27c-.41.12-.92.24-1.54.36s-1.3.23-2.08.32a21.31,21.31,0,0,1-6.23-.2,9.37,9.37,0,0,1-2.76-1,4.91,4.91,0,0,1-1.7-1.58,3.87,3.87,0,0,1-.58-2.11,5.89,5.89,0,0,1,.41-2.14,7.32,7.32,0,0,1,1.17-2,9.39,9.39,0,0,1,1.89-1.75,12.14,12.14,0,0,1,2.58-1.39,17.14,17.14,0,0,1,3.2-.92,19.61,19.61,0,0,1,3.78-.34,16.49,16.49,0,0,1,2.18.13c.68.09,1.29.19,1.81.31a10,10,0,0,1,1.36.39,5.37,5.37,0,0,1,.74.33.63.63,0,0,1,.27.21.5.5,0,0,1,.07.26Zm4.66,11.51a.26.26,0,0,1-.11.13.9.9,0,0,1-.27.1,4.53,4.53,0,0,1-.47,0,6.73,6.73,0,0,1-.69,0,6.81,6.81,0,0,1-.7,0,3,3,0,0,1-.41,0,.46.46,0,0,1-.2-.1.13.13,0,0,1,0-.13l4.13-12.7a.23.23,0,0,1,.13-.13,1.07,1.07,0,0,1,.29-.1l.45-.06a6.52,6.52,0,0,1,.68,0,5.86,5.86,0,0,1,.66,0l.43.06a.4.4,0,0,1,.21.1.15.15,0,0,1,0,.13l-4.13,12.7Zm21.79-12.62a1,1,0,0,1,0,.16,1.06,1.06,0,0,1-.05.23c0,.08-.06.17-.1.26a.78.78,0,0,1-.16.24.7.7,0,0,1-.24.17.67.67,0,0,1-.31.07H273L271.61,61h7.24a.45.45,0,0,1,.3.08.28.28,0,0,1,.1.24.61.61,0,0,1,0,.16c0,.07,0,.15-.05.24a1.36,1.36,0,0,1-.11.25,1.07,1.07,0,0,1-.15.22.79.79,0,0,1-.23.16.7.7,0,0,1-.3.07h-7.22l-1.57,4.72h8.58a.51.51,0,0,1,.28.08.35.35,0,0,1,.1.26,1.16,1.16,0,0,1,0,.17c0,.08,0,.15-.07.24a1.52,1.52,0,0,1-.09.25.87.87,0,0,1-.16.23.81.81,0,0,1-.24.17.81.81,0,0,1-.31.06H267.32a1.47,1.47,0,0,1-.36,0,.73.73,0,0,1-.3-.12.46.46,0,0,1-.17-.22.39.39,0,0,1,0-.33l3.84-11.78a.85.85,0,0,1,.52-.56,2.24,2.24,0,0,1,.78-.15h10.21c.25,0,.38.11.38.33Zm14.54.67a.58.58,0,0,1,0,.18,1,1,0,0,1,0,.23,2.44,2.44,0,0,1-.1.24,1,1,0,0,1-.14.23,1,1,0,0,1-.19.16.54.54,0,0,1-.25.06,1.23,1.23,0,0,1-.5-.14c-.22-.08-.5-.18-.83-.27s-.75-.2-1.21-.29a9.66,9.66,0,0,0-1.62-.13,7.16,7.16,0,0,0-1.77.19,4.56,4.56,0,0,0-1.29.51,2.36,2.36,0,0,0-.77.73,1.51,1.51,0,0,0-.26.85,1.1,1.1,0,0,0,.32.78,3.4,3.4,0,0,0,.85.62,9.84,9.84,0,0,0,1.2.51l1.37.51c.47.17.93.35,1.39.54a5.52,5.52,0,0,1,1.2.68,3.34,3.34,0,0,1,.85.87,2,2,0,0,1,.33,1.15,2.64,2.64,0,0,1-.59,1.63,4.92,4.92,0,0,1-1.65,1.33,10.59,10.59,0,0,1-2.59.89,17.63,17.63,0,0,1-5.27.23c-.58-.08-1.1-.16-1.57-.27a9.94,9.94,0,0,1-1.18-.33,4.12,4.12,0,0,1-.7-.29.44.44,0,0,1-.22-.39.74.74,0,0,1,0-.18,1.27,1.27,0,0,1,.07-.24,2,2,0,0,1,.11-.26,1.2,1.2,0,0,1,.15-.24.79.79,0,0,1,.2-.17.53.53,0,0,1,.26-.07,1.78,1.78,0,0,1,.66.17l1,.35c.4.12.87.24,1.41.35a9.73,9.73,0,0,0,1.91.16,9.35,9.35,0,0,0,2.08-.2,5.53,5.53,0,0,0,1.54-.54,2.67,2.67,0,0,0,1-.8,1.64,1.64,0,0,0,.34-1,1.16,1.16,0,0,0-.32-.8,3.16,3.16,0,0,0-.84-.62,8.21,8.21,0,0,0-1.18-.5c-.45-.16-.91-.32-1.37-.5s-.91-.35-1.36-.54a6.06,6.06,0,0,1-1.18-.67,3.67,3.67,0,0,1-.84-.88,2.12,2.12,0,0,1-.32-1.16,2.47,2.47,0,0,1,.52-1.51,4.43,4.43,0,0,1,1.46-1.24,8.57,8.57,0,0,1,2.3-.83,13.79,13.79,0,0,1,3-.31,12.3,12.3,0,0,1,1.52.09c.48,0,.92.11,1.31.19a10.17,10.17,0,0,1,1,.26,3.18,3.18,0,0,1,.56.23.7.7,0,0,1,.22.19.43.43,0,0,1,.06.24Z"/></g><g id="Layer1002"><g id="Layer1003"><path id="path12" class="cls-3" d="M17.6,3.69a26.23,26.23,0,0,0-17.4,22C-1.63,41.1,9.27,56,24.48,58.75a26.21,26.21,0,0,0,19.88-4.22,26.58,26.58,0,0,1-13.53,1C15.62,52.72,4.72,37.86,6.55,22.43A26.45,26.45,0,0,1,17.6,3.69Z"/><path id="path14" class="cls-3" d="M56.11,70a26.23,26.23,0,0,0,17.4-22C75.34,32.61,64.44,17.75,49.23,15a26.21,26.21,0,0,0-19.88,4.22,26.58,26.58,0,0,1,13.53-1C58.09,21,69,35.85,67.16,51.28A26.45,26.45,0,0,1,56.11,70Z"/></g><g id="Layer1004"><path id="path17" class="cls-1" d="M3.69,56.11a26.23,26.23,0,0,0,22,17.4C41.1,75.34,56,64.44,58.75,49.23a26.21,26.21,0,0,0-4.22-19.88,26.58,26.58,0,0,1,1,13.53C52.72,58.09,37.86,69,22.43,67.16a26.45,26.45,0,0,1-18.74-11Z"/><path id="path19" class="cls-1" d="M70,17.6A26.23,26.23,0,0,0,48,.2C32.61-1.63,17.75,9.27,15,24.48a26.21,26.21,0,0,0,4.22,19.88,26.58,26.58,0,0,1-1-13.53C21,15.62,35.85,4.72,51.28,6.55A26.45,26.45,0,0,1,70,17.6Z"/></g></g></g></g></g></svg>